<svg xmlns="http://www.w3.org/2000/svg">
    <symbol viewBox="0 0 24 24" id="home">
        <path stroke="#163716" stroke-linecap="round" stroke-linejoin="round" stroke-width="1.2"
              d="m4 10 8-7 8 7v10h-5v-4a3 3 0 0 0-6 0v4H4V10Z"/>
    </symbol>
    <symbol viewBox="0 0 192 192" id="gallery">
        <path stroke="#163716" stroke-width="9"
              d="M30 40c0-5.523 4.477-10 10-10h112c5.523 0 10 4.477 10 10v112c0 5.523-4.477 10-10 10H40c-5.523 0-10-4.477-10-10V40Z"/>
        <path stroke="#163716" stroke-linecap="round" stroke-linejoin="round" stroke-width="9"
              d="m30 138 34-34 24 24 40-40 34 34"/>
    </symbol>
    <symbol viewBox="0 0 24 24" id="arrow-down">
        <path stroke="#000" stroke-linecap="round" stroke-linejoin="round" stroke-width="1"
              d="m9 13 3 3m0 0 3-3m-3 3V8m9 4a9 9 0 1 1-18 0 9 9 0 0 1 18 0Z"/>
    </symbol>
    <symbol viewBox="0 0 24 24" id="arrow-left">
        <path stroke="#000" stroke-linecap="round" stroke-linejoin="round" stroke-width="1"
              d="m11 9-3 3m0 0 3 3m-3-3h8m5 0a9 9 0 1 1-18 0 9 9 0 0 1 18 0Z"/>
    </symbol>
    <symbol id="icon-header">
        <path fill="#fff"
              d="M9.478 12.266c0-.763-.104-1.309-.312-1.638-.208-.33-.537-.529-.988-.598-.45-.07-1.049-.087-1.794-.052l-1.898.078v5.954c0 .468-.009.867-.026 1.196 0 .33-.017.607-.052.832l4.966-.078c.763-.017 1.421-.139 1.976-.364.555-.243.988-.659 1.3-1.248.312-.59.468-1.395.468-2.418h.884L13.846 19H.43v-.858c.659-.035 1.11-.182 1.352-.442.243-.277.373-.65.39-1.118.035-.485.052-1.031.052-1.638V3.712c0-.347.009-.676.026-.988.017-.33.035-.624.052-.884l-.936.052-.936.052V.8h12.506l.13 4.55h-.858c0-1.023-.156-1.794-.468-2.314-.312-.537-.737-.893-1.274-1.066-.52-.19-1.11-.277-1.768-.26l-2.236.052c-.641.017-1.1.139-1.378.364-.277.225-.45.563-.52 1.014a15.033 15.033 0 0 0-.078 1.716v4.16l4.888.026-.182-2.236h1.144v5.46h-.858Zm12.17 7.15c-.867 0-1.638-.121-2.314-.364-.676-.225-1.23-.485-1.664-.78l.104.91h-1.092l-.156-4.472h.806c.034.71.234 1.352.598 1.924a3.88 3.88 0 0 0 1.404 1.3 3.795 3.795 0 0 0 1.846.468c.45 0 .893-.07 1.326-.208a2.913 2.913 0 0 0 1.092-.676c.294-.312.442-.702.442-1.17 0-.485-.148-.884-.442-1.196-.277-.33-.65-.615-1.118-.858-.468-.243-.97-.468-1.508-.676a59.62 59.62 0 0 1-1.56-.65 8.457 8.457 0 0 1-1.456-.806 3.638 3.638 0 0 1-1.04-1.144c-.26-.45-.39-1.005-.39-1.664 0-.364.07-.763.208-1.196.138-.433.372-.84.702-1.222.33-.399.78-.72 1.352-.962.572-.26 1.3-.39 2.184-.39.468 0 .988.078 1.56.234.572.156 1.127.45 1.664.884l-.052-.988h1.092v4.55h-.832a5.025 5.025 0 0 0-.416-1.742 3.45 3.45 0 0 0-1.066-1.404c-.468-.381-1.075-.572-1.82-.572-.797 0-1.422.2-1.872.598-.45.399-.676.858-.676 1.378 0 .537.165.988.494 1.352.347.347.789.65 1.326.91s1.11.511 1.716.754c.659.277 1.3.58 1.924.91a4.76 4.76 0 0 1 1.534 1.248c.399.485.598 1.118.598 1.898 0 .867-.226 1.586-.676 2.158A3.704 3.704 0 0 1 23.78 19a5.563 5.563 0 0 1-2.132.416Zm13.049 0a6.817 6.817 0 0 1-3.224-.78 6.172 6.172 0 0 1-2.34-2.288c-.572-1.005-.858-2.21-.858-3.614 0-.901.165-1.777.494-2.626.33-.85.789-1.612 1.378-2.288a6.666 6.666 0 0 1 2.158-1.638c.832-.399 1.75-.598 2.756-.598.97 0 1.811.147 2.522.442.728.295 1.291.685 1.69 1.17.399.485.598 1.014.598 1.586a1.6 1.6 0 0 1-.312.988c-.208.26-.511.39-.91.39-.433.017-.745-.113-.936-.39-.173-.295-.26-.555-.26-.78 0-.173.026-.347.078-.52.052-.19.156-.364.312-.52-.139-.416-.381-.72-.728-.91a2.856 2.856 0 0 0-1.092-.39 5.029 5.029 0 0 0-.91-.104c-1.179 0-2.175.477-2.99 1.43-.797.936-1.196 2.305-1.196 4.108 0 1.161.182 2.193.546 3.094.381.901.91 1.612 1.586 2.132.676.503 1.456.754 2.34.754a4.59 4.59 0 0 0 2.34-.65c.745-.433 1.326-.962 1.742-1.586l.676.52a5.957 5.957 0 0 1-1.638 1.768c-.624.45-1.274.78-1.95.988a6.222 6.222 0 0 1-1.872.312ZM50.044 19a8.148 8.148 0 0 1-.104-.78c-.017-.225-.043-.46-.078-.702a7.396 7.396 0 0 1-1.924 1.404 4.864 4.864 0 0 1-2.158.494c-1.317 0-2.297-.295-2.938-.884-.641-.607-.962-1.343-.962-2.21 0-.797.243-1.482.728-2.054.503-.59 1.144-1.066 1.924-1.43a10.41 10.41 0 0 1 2.574-.832c.936-.19 1.837-.277 2.704-.26v-1.612c0-.607-.052-1.179-.156-1.716-.104-.537-.33-.98-.676-1.326-.347-.347-.901-.529-1.664-.546a3.928 3.928 0 0 0-1.56.286 2.09 2.09 0 0 0-1.144 1.066.915.915 0 0 1 .26.494c.052.173.078.338.078.494 0 .208-.087.45-.26.728-.173.26-.477.381-.91.364-.364 0-.641-.121-.832-.364a1.497 1.497 0 0 1-.286-.91c0-.59.217-1.118.65-1.586.45-.468 1.066-.84 1.846-1.118.78-.277 1.664-.416 2.652-.416 1.456 0 2.53.39 3.224 1.17.693.763 1.031 1.976 1.014 3.64v1.95c0 .641-.009 1.291-.026 1.95v1.95c0 .277-.009.555-.026.832-.017.277-.043.59-.078.936l.91-.052.936-.052V19h-3.718Zm-.234-6.37c-.59.017-1.213.095-1.872.234a7.487 7.487 0 0 0-1.794.572c-.537.26-.98.607-1.326 1.04-.33.416-.485.927-.468 1.534.035.641.243 1.127.624 1.456.399.312.867.468 1.404.468.71 0 1.326-.13 1.846-.39A7.15 7.15 0 0 0 49.81 16.4a6.935 6.935 0 0 1-.026-.624V14.242c.017-.468.026-1.005.026-1.612Zm5.502 13v-.78c.538 0 .91-.139 1.118-.416.208-.26.33-.633.364-1.118.035-.468.052-1.014.052-1.638l.052-12.558v-.832c.018-.277.052-.563.104-.858l-.936.052-.91.052V6.442c.763 0 1.335-.035 1.716-.104.399-.07.685-.156.858-.26.191-.104.347-.217.468-.338h.78a43.039 43.039 0 0 1 .104 1.404 5.976 5.976 0 0 1 1.846-1.118 5.783 5.783 0 0 1 2.184-.442c1.006 0 1.942.26 2.808.78.867.52 1.569 1.265 2.106 2.236.538.953.806 2.097.806 3.432 0 1.473-.312 2.765-.936 3.874-.606 1.11-1.412 1.976-2.418 2.6a6.225 6.225 0 0 1-3.276.91c-.606 0-1.17-.078-1.69-.234a5.518 5.518 0 0 1-1.43-.624v4.316c0 .347-.008.65-.026.91 0 .277-.026.563-.078.858l.806-.052c.278 0 .555-.009.832-.026v1.066h-5.304Zm6.838-7.254c.832 0 1.543-.251 2.132-.754.607-.52 1.066-1.222 1.378-2.106.33-.901.494-1.924.494-3.068a8.57 8.57 0 0 0-.416-2.678c-.26-.867-.684-1.569-1.274-2.106-.572-.537-1.334-.806-2.288-.806-.589 0-1.161.147-1.716.442a4.769 4.769 0 0 0-1.352 1.014v.312c.018.121.026.347.026.676v1.43c0 .624-.008 1.473-.026 2.548v4.082c.434.33.902.58 1.404.754.52.173 1.066.26 1.638.26Zm15.202 1.04c-1.196 0-2.28-.277-3.25-.832-.953-.572-1.707-1.37-2.262-2.392-.555-1.04-.832-2.262-.832-3.666 0-1.213.269-2.349.806-3.406a6.69 6.69 0 0 1 2.314-2.548c.988-.659 2.132-.988 3.432-.988.728 0 1.404.121 2.028.364.641.225 1.205.58 1.69 1.066.485.468.867 1.066 1.144 1.794.277.71.416 1.551.416 2.522l-9.152.156c0 1.317.139 2.479.416 3.484.295.988.763 1.76 1.404 2.314.641.537 1.465.806 2.47.806.537 0 1.083-.095 1.638-.286.572-.19 1.1-.45 1.586-.78.485-.33.875-.693 1.17-1.092l.624.52c-.468.728-1.031 1.309-1.69 1.742a7.123 7.123 0 0 1-2.028.936c-.693.19-1.335.286-1.924.286Zm-3.588-9.022h6.63c0-.624-.095-1.222-.286-1.794-.173-.59-.468-1.066-.884-1.43-.416-.381-.962-.572-1.638-.572-1.005 0-1.846.303-2.522.91-.659.59-1.092 1.551-1.3 2.886Zm13.416 9.022c-.399 0-.754-.156-1.066-.468a1.73 1.73 0 0 1-.442-1.196c0-.468.156-.867.468-1.196.312-.33.667-.494 1.066-.494.433 0 .788.165 1.066.494.294.33.442.728.442 1.196 0 .468-.156.867-.468 1.196-.312.312-.667.468-1.066.468Z"/>
    </symbol>
    <symbol viewBox="0 0 24 24" id="telegram">
        <path stroke="#fff" stroke-linejoin="round"
              d="M21.997 12c0 5.523-4.477 10-10 10s-10-4.477-10-10 4.477-10 10-10 10 4.477 10 10Zm-9.642-2.618c-.972.405-2.916 1.242-5.831 2.512-.474.189-.722.373-.744.553-.039.304.343.424.862.587l.218.07c.51.166 1.198.36 1.555.368.324.007.685-.127 1.084-.4 2.724-1.84 4.13-2.769 4.218-2.789.063-.014.149-.032.207.02.059.052.053.15.047.177-.038.161-1.534 1.552-2.308 2.271-.241.225-.413.384-.448.42a8.802 8.802 0 0 1-.235.233c-.474.457-.83.8.02 1.36.408.27.735.492 1.061.714.356.242.711.484 1.17.785.118.077.23.156.338.234.415.296.787.56 1.247.518.267-.024.543-.275.683-1.025.332-1.77.983-5.608 1.133-7.19a1.757 1.757 0 0 0-.017-.393.421.421 0 0 0-.142-.27c-.12-.098-.305-.118-.387-.117-.376.007-.954.207-3.73 1.362Z"
              clip-rule="evenodd"/>
    </symbol>
    <symbol viewBox="0 0 192 192" id="instagram">
        <path stroke="#fff" stroke-width="12"
              d="M96 162c-14.152 0-24.336-.007-32.276-.777-7.849-.761-12.87-2.223-16.877-4.741a36 36 0 0 1-11.33-11.329c-2.517-4.007-3.98-9.028-4.74-16.877C30.007 120.336 30 110.152 30 96c0-14.152.007-24.336.777-32.276.76-7.849 2.223-12.87 4.74-16.877a36 36 0 0 1 11.33-11.33c4.007-2.517 9.028-3.98 16.877-4.74C71.663 30.007 81.847 30 96 30c14.152 0 24.336.007 32.276.777 7.849.76 12.87 2.223 16.877 4.74a36 36 0 0 1 11.329 11.33c2.518 4.007 3.98 9.028 4.741 16.877.77 7.94.777 18.124.777 32.276 0 14.152-.007 24.336-.777 32.276-.761 7.849-2.223 12.87-4.741 16.877a36 36 0 0 1-11.329 11.329c-4.007 2.518-9.028 3.98-16.877 4.741-7.94.77-18.124.777-32.276.777Z"/>
        <circle cx="96" cy="96" r="30" stroke="#fff" stroke-width="12"/>
        <circle cx="135" cy="57" r="9" fill="#fff"/>
    </symbol>
    <symbol viewBox="0 0 24 24" id="facebook">
        <path fill="#fff" fill-rule="evenodd"
              d="M2 6a4 4 0 0 1 4-4h12a4 4 0 0 1 4 4v12a4 4 0 0 1-4 4H6a4 4 0 0 1-4-4V6Zm4-2a2 2 0 0 0-2 2v12a2 2 0 0 0 2 2h6v-7h-1a1 1 0 1 1 0-2h1V9.5A3.5 3.5 0 0 1 15.5 6h.6a1 1 0 1 1 0 2h-.6A1.5 1.5 0 0 0 14 9.5V11h2.1a1 1 0 1 1 0 2H14v7h4a2 2 0 0 0 2-2V6a2 2 0 0 0-2-2H6Z"
              clip-rule="evenodd"/>
    </symbol>
    <symbol viewBox="0 0 24 24" id="tik-tok">
        <path fill="#fff" fill-rule="evenodd"
              d="M11.9 3a.5.5 0 0 1 .5-.5h2.8a.5.5 0 0 1 .498.458c.148 1.732.903 2.737 1.753 3.315.872.593 1.881.76 2.527.732a.5.5 0 0 1 .044.999A5.363 5.363 0 0 1 16.89 7.1c-1.018-.692-1.872-1.835-2.134-3.6H12.9v10.467c0 1.698-.672 2.984-1.652 3.672-.981.69-2.243.748-3.252.017-1.252-.907-1.468-2.331-.966-3.455a2.95 2.95 0 0 1 2.67-1.747v-2.28c-.915.06-2.09.294-3.086.913-1.154.717-2.114 1.976-2.114 4.25 0 1.472.398 2.522.984 3.272.589.755 1.398 1.244 2.279 1.536a7.513 7.513 0 0 0 2.635.348c.827-.035 1.467-.196 1.771-.354 1.239-.645 1.94-1.282 2.353-2.091.422-.826.578-1.898.578-3.494V9.071a.5.5 0 0 1 .72-.45c.626.307 2.378.976 4.22 1.126a.5.5 0 1 1-.08.997c-1.506-.123-2.941-.559-3.86-.915v4.725c0 1.633-.154 2.903-.687 3.948-.542 1.063-1.441 1.825-2.782 2.524-.489.254-1.295.428-2.191.466-.91.039-1.973-.06-2.992-.398-1.02-.339-2.014-.924-2.753-1.87C3.954 18.274 3.5 17 3.5 15.337c0-2.621 1.14-4.201 2.586-5.1 1.41-.876 3.066-1.079 4.114-1.079a.5.5 0 0 1 .5.5v3.33a.5.5 0 0 1-.574.494c-1.066-.16-1.855.395-2.183 1.127-.325.729-.197 1.631.64 2.237.633.459 1.427.441 2.09-.025.666-.468 1.227-1.42 1.227-2.854V3Z"
              clip-rule="evenodd"/>
    </symbol>
    <symbol viewBox="0 0 32 32" id="pointer">
        <path d="M30 28c0 1.1-.896 2-2 2H4c-1.104 0-2-.9-2-2V4a2 2 0 0 1 2-2h24a2 2 0 0 1 2 2v24ZM28 0H4a4 4 0 0 0-4 4v24a4 4 0 0 0 4 4h24a4 4 0 0 0 4-4V4a4 4 0 0 0-4-4ZM16.879 8.465a.981.981 0 0 0-.879-.26.981.981 0 0 0-.879.26l-5.656 5.656a.999.999 0 1 0 1.414 1.414L15 11.414V22a1.001 1.001 0 0 0 2 0V11.414l4.121 4.121a.999.999 0 1 0 1.414-1.414l-5.656-5.656Z"
              fill="#000" fill-rule="evenodd"/>
    </symbol>
</svg>